<svg width="200" height="205" viewBox="0 0 200 205" fill="none" xmlns="http://www.w3.org/2000/svg">
<path d="M162.31 48.8363V205H54.2333L162.31 48.8363ZM32.618 37.6531C14.5923 37.6531 0 52.6982 0 71.2834V148.762L151.073 37.6531H32.618ZM164.027 1.28728C162.934 1.28728 161.529 1.68956 160.749 2.49411C152.712 10.6201 144.752 18.8265 135.934 27.9984C149.044 27.9984 160.749 28.1593 172.688 28.2398L172.922 66.0538C181.818 56.8819 189.778 48.7559 197.659 40.3885C198.361 39.584 198.751 38.1358 198.751 37.0094C199.22 24.9411 199.61 12.7924 200 0C187.515 0.402276 175.732 0.804553 163.949 1.28728" fill="black" fill-opacity="0.04"/>
</svg>
