<svg width="11" height="11" viewBox="0 0 11 11" fill="none" xmlns="http://www.w3.org/2000/svg">
<path d="M5.38047 10.6911C8.35202 10.6911 10.7609 8.29779 10.7609 5.34553C10.7609 2.39328 8.35202 0 5.38047 0C2.40892 0 0 2.39328 0 5.34553C0 8.29779 2.40892 10.6911 5.38047 10.6911Z" fill="white"/>
<g style="mix-blend-mode:multiply" opacity="0.42">
<path d="M5.3806 9.14007C7.48995 9.14007 9.19992 7.44121 9.19992 5.34555C9.19992 3.24989 7.48995 1.55103 5.3806 1.55103C3.27125 1.55103 1.56128 3.24989 1.56128 5.34555C1.56128 7.44121 3.27125 9.14007 5.3806 9.14007Z" fill="#3668B4"/>
</g>
<path d="M8.39768 5.34557C8.39768 7.00093 7.0466 8.34325 5.38042 8.34325C3.71424 8.34325 2.36316 7.00093 2.36316 5.34557C2.36316 3.69021 3.71424 2.3479 5.38042 2.3479C7.0466 2.3479 8.39768 3.69021 8.39768 5.34557Z" fill="#3668B4"/>
</svg>
