<svg width="40" height="40" viewBox="0 0 40 40" fill="none" xmlns="http://www.w3.org/2000/svg">
<g clip-path="url(#clip0_622_9712)">
<path d="M40 0H0V40H40V0Z" fill="white"/>
<mask id="mask0_622_9712" style="mask-type:luminance" maskUnits="userSpaceOnUse" x="0" y="0" width="39" height="39">
<path d="M0.959961 14.64H2.47996V13.12H1.71996C1.5184 13.12 1.32509 13.2001 1.18256 13.3426C1.04003 13.4851 0.959961 13.6785 0.959961 13.88" fill="white"/>
<path d="M2.47996 14.64H0.959961V16.16H2.47996V14.64Z" fill="white"/>
<path d="M2.47996 16.1599H0.959961V17.6799H2.47996V16.1599Z" fill="white"/>
<path d="M2.47998 19.2V17.68H0.95998L0.95998 18.44C0.95998 18.6415 1.04005 18.8348 1.18258 18.9774C1.32511 19.1199 1.51842 19.2 1.71998 19.2" fill="white"/>
<path d="M2.47998 23.76V22.24H1.71998C1.51842 22.24 1.32511 22.3201 1.18258 22.4626C1.04005 22.6051 0.95998 22.7984 0.95998 23C0.95998 23.2016 1.04005 23.3949 1.18258 23.5374C1.32511 23.6799 1.51842 23.76 1.71998 23.76" fill="white"/>
<path d="M2.47998 13.12V14.64H3.99998V13.88C3.99998 13.6784 3.91991 13.4851 3.77738 13.3426C3.63485 13.2001 3.44155 13.12 3.23998 13.12" fill="white"/>
<path d="M4 14.64H2.48V16.16H3.24C3.44156 16.16 3.63487 16.0799 3.7774 15.9374C3.91993 15.7949 4 15.6016 4 15.4" fill="white"/>
<path d="M3.99998 17.6799H2.47998V19.1999H3.99998V17.6799Z" fill="white"/>
<path d="M4 20.72V19.2H2.48V19.96C2.48 20.1615 2.56007 20.3548 2.7026 20.4974C2.84513 20.6399 3.03844 20.72 3.24 20.72" fill="white"/>
<path d="M3.99998 22.24H2.47998V23.76H3.99998V22.24Z" fill="white"/>
<path d="M4 26.7999V25.2799H3.24C3.03844 25.2799 2.84513 25.36 2.7026 25.5025C2.56007 25.6451 2.48 25.8384 2.48 26.0399C2.48 26.2415 2.56007 26.4348 2.7026 26.5773C2.84513 26.7199 3.03844 26.7999 3.24 26.7999" fill="white"/>
<path d="M4 17.6799V19.1999H5.52V18.4399C5.52 18.2384 5.43993 18.0451 5.2974 17.9025C5.15487 17.76 4.96156 17.6799 4.76 17.6799" fill="white"/>
<path d="M5.52 19.2H4V20.72H5.52V19.2Z" fill="white"/>
<path d="M5.52 22.24H4V23.76H5.52V22.24Z" fill="white"/>
<path d="M5.52 25.2799H4V26.7999H5.52V25.2799Z" fill="white"/>
<path d="M7.03992 16.1599V14.6399H6.27992C6.07835 14.6399 5.88504 14.72 5.74252 14.8625C5.59999 15.005 5.51992 15.1983 5.51992 15.3999C5.51992 15.6015 5.59999 15.7948 5.74252 15.9373C5.88504 16.0798 6.07835 16.1599 6.27992 16.1599" fill="white"/>
<path d="M7.04002 19.2H5.52002V20.72H7.04002V19.2Z" fill="white"/>
<path d="M7.04002 20.72H5.52002V22.24H7.04002V20.72Z" fill="white"/>
<path d="M7.04002 22.24H5.52002V23.76H7.04002V22.24Z" fill="white"/>
<path d="M7.04002 23.76H5.52002V25.28H7.04002V23.76Z" fill="white"/>
<path d="M7.04002 25.2799H5.52002V26.7999H7.04002V25.2799Z" fill="white"/>
<path d="M7.03992 14.64V16.16H7.79992C8.00148 16.16 8.19479 16.0799 8.33732 15.9374C8.47985 15.7949 8.55992 15.6016 8.55992 15.4C8.55992 15.1985 8.47985 15.0051 8.33732 14.8626C8.19479 14.7201 8.00148 14.64 7.79992 14.64" fill="white"/>
<path d="M7.03992 19.2H8.55992V18.44C8.55992 18.2384 8.47985 18.0451 8.33732 17.9026C8.19479 17.76 8.00148 17.68 7.79992 17.68C7.59835 17.68 7.40504 17.76 7.26252 17.9026C7.11999 18.0451 7.03992 18.2384 7.03992 18.44" fill="white"/>
<path d="M8.55992 19.2H7.03992V20.72H8.55992V19.2Z" fill="white"/>
<path d="M8.55992 20.72H7.03992V22.24H8.55992V20.72Z" fill="white"/>
<path d="M8.55992 25.2799H7.03992V26.7999H8.55992V25.2799Z" fill="white"/>
<path d="M10.08 17.6799V16.1599H9.31996C9.11839 16.1599 8.92508 16.24 8.78255 16.3825C8.64003 16.5251 8.55996 16.7184 8.55996 16.9199C8.55996 17.1215 8.64003 17.3148 8.78255 17.4573C8.92508 17.5999 9.11839 17.6799 9.31996 17.6799" fill="white"/>
<path d="M8.55994 20.72V22.24H10.0799V21.48C10.0799 21.2784 9.99987 21.0851 9.85734 20.9426C9.71481 20.8 9.5215 20.72 9.31994 20.72" fill="white"/>
<path d="M10.08 23.76V22.24H8.55996V23C8.55996 23.2016 8.64003 23.3949 8.78255 23.5374C8.92508 23.6799 9.11839 23.76 9.31996 23.76" fill="white"/>
<path d="M10.0799 25.2799H8.55994V26.7999H10.0799V25.2799Z" fill="white"/>
<path d="M10.84 14.64C11.2597 14.64 11.6 14.2997 11.6 13.88C11.6 13.4603 11.2597 13.12 10.84 13.12C10.4202 13.12 10.08 13.4603 10.08 13.88C10.08 14.2997 10.4202 14.64 10.84 14.64Z" fill="white"/>
<path d="M11.6 16.1599H10.08V17.6799H11.6V16.1599Z" fill="white"/>
<path d="M10.84 20.72C11.2597 20.72 11.6 20.3797 11.6 19.96C11.6 19.5402 11.2597 19.2 10.84 19.2C10.4202 19.2 10.08 19.5402 10.08 19.96C10.08 20.3797 10.4202 20.72 10.84 20.72Z" fill="white"/>
<path d="M11.6 22.24H10.08V23.76H11.6V22.24Z" fill="white"/>
<path d="M10.08 25.2799V26.7999H10.84C11.0415 26.7999 11.2348 26.7198 11.3774 26.5773C11.5199 26.4348 11.6 26.2415 11.6 26.0399C11.6 25.8383 11.5199 25.645 11.3774 25.5025C11.2348 25.36 11.0415 25.2799 10.84 25.2799" fill="white"/>
<path d="M11.6 16.1599H13.12V15.3999C13.12 15.1983 13.0399 15.005 12.8974 14.8625C12.7548 14.72 12.5615 14.6399 12.36 14.6399C12.1584 14.6399 11.9651 14.72 11.8226 14.8625C11.68 15.005 11.6 15.1983 11.6 15.3999" fill="white"/>
<path d="M13.12 16.1599H11.6V17.6799H13.12V16.1599Z" fill="white"/>
<path d="M11.6 22.24V23.76H13.12V23C13.12 22.7984 13.0399 22.6051 12.8974 22.4626C12.7548 22.3201 12.5615 22.24 12.36 22.24" fill="white"/>
<path d="M13.12 25.2799V23.7599H11.6V24.5199C11.6 24.7215 11.6801 24.9148 11.8226 25.0573C11.9651 25.1998 12.1584 25.2799 12.36 25.2799" fill="white"/>
<path d="M13.88 3.99998C14.2997 3.99998 14.64 3.65972 14.64 3.23998C14.64 2.82024 14.2997 2.47998 13.88 2.47998C13.4603 2.47998 13.12 2.82024 13.12 3.23998C13.12 3.65972 13.4603 3.99998 13.88 3.99998Z" fill="white"/>
<path d="M13.12 11.6H14.64V10.84C14.64 10.6384 14.5599 10.4451 14.4174 10.3026C14.2749 10.16 14.0816 10.08 13.88 10.08C13.6784 10.08 13.4851 10.16 13.3426 10.3026C13.2001 10.4451 13.12 10.6384 13.12 10.84" fill="white"/>
<path d="M14.64 11.6H13.12V13.12H14.64V11.6Z" fill="white"/>
<path d="M14.64 14.64V13.12H13.12V13.88C13.12 14.0816 13.2001 14.2749 13.3426 14.4174C13.4851 14.5599 13.6785 14.64 13.88 14.64" fill="white"/>
<path d="M14.64 16.1599H13.12V17.6799H14.64V16.1599Z" fill="white"/>
<path d="M14.64 19.2V17.68H13.12V18.44C13.12 18.6415 13.2001 18.8348 13.3426 18.9774C13.4851 19.1199 13.6785 19.2 13.88 19.2" fill="white"/>
<path d="M14.64 23.76H13.12V25.28H14.64V23.76Z" fill="white"/>
<path d="M13.88 28.3199C14.2997 28.3199 14.64 27.9797 14.64 27.5599C14.64 27.1402 14.2997 26.7999 13.88 26.7999C13.4603 26.7999 13.12 27.1402 13.12 27.5599C13.12 27.9797 13.4603 28.3199 13.88 28.3199Z" fill="white"/>
<path d="M13.12 37.4399H14.64V35.9199H13.88C13.6784 35.9199 13.4851 36 13.3426 36.1425C13.2001 36.2851 13.12 36.4784 13.12 36.6799" fill="white"/>
<path d="M14.64 37.4399H13.12V38.1999C13.12 38.4015 13.2001 38.5948 13.3426 38.7373C13.4851 38.8799 13.6785 38.9599 13.88 38.9599C14.0816 38.9599 14.2749 38.8799 14.4174 38.7373C14.5599 38.5948 14.64 38.4015 14.64 38.1999" fill="white"/>
<path d="M15.4 5.52C15.8198 5.52 16.16 5.17974 16.16 4.76C16.16 4.34026 15.8198 4 15.4 4C14.9803 4 14.64 4.34026 14.64 4.76C14.64 5.17974 14.9803 5.52 15.4 5.52Z" fill="white"/>
<path d="M14.64 8.55994H16.16V7.03994H15.4C15.1985 7.03994 15.0051 7.12001 14.8626 7.26254C14.7201 7.40506 14.64 7.59837 14.64 7.79994" fill="white"/>
<path d="M16.1599 8.55994H14.6399V9.31994C14.6399 9.5215 14.72 9.71481 14.8625 9.85734C15.005 9.99987 15.1983 10.0799 15.3999 10.0799C15.6015 10.0799 15.7948 9.99987 15.9373 9.85734C16.0798 9.71481 16.1599 9.5215 16.1599 9.31994" fill="white"/>
<path d="M14.64 13.12V14.64H15.4C15.6016 14.64 15.7949 14.5599 15.9374 14.4174C16.0799 14.2749 16.16 14.0816 16.16 13.88C16.16 13.6784 16.0799 13.4851 15.9374 13.3426C15.7949 13.2001 15.6016 13.12 15.4 13.12" fill="white"/>
<path d="M16.16 16.1599H14.64V17.6799H16.16V16.1599Z" fill="white"/>
<path d="M16.1599 17.6799H14.6399V19.1999H15.3999C15.6015 19.1999 15.7948 19.1199 15.9373 18.9773C16.0798 18.8348 16.1599 18.6415 16.1599 18.4399" fill="white"/>
<path d="M14.64 22.24H16.16V20.72H15.4C15.1985 20.72 15.0051 20.8001 14.8626 20.9426C14.7201 21.0851 14.64 21.2784 14.64 21.48" fill="white"/>
<path d="M16.16 22.24H14.64V23.76H16.16V22.24Z" fill="white"/>
<path d="M16.16 23.76H14.64V25.28H16.16V23.76Z" fill="white"/>
<path d="M14.64 31.36H16.16V30.6C16.16 30.3984 16.0799 30.2051 15.9374 30.0626C15.7949 29.9201 15.6016 29.84 15.4 29.84C15.1985 29.84 15.0051 29.9201 14.8626 30.0626C14.7201 30.2051 14.64 30.3984 14.64 30.6" fill="white"/>
<path d="M16.16 31.36H14.64V32.88H16.16V31.36Z" fill="white"/>
<path d="M16.16 32.88H14.64V34.4H16.16V32.88Z" fill="white"/>
<path d="M16.16 34.3999H14.64V35.9199H16.16V34.3999Z" fill="white"/>
<path d="M16.16 35.9199H14.64V37.4399H16.16V35.9199Z" fill="white"/>
<path d="M16.1599 7.03992V8.55992H16.9199C17.1215 8.55992 17.3148 8.47985 17.4573 8.33732C17.5998 8.19479 17.6799 8.00148 17.6799 7.79992C17.6799 7.59835 17.5998 7.40504 17.4573 7.26252C17.3148 7.11999 17.1215 7.03992 16.9199 7.03992" fill="white"/>
<path d="M16.9199 11.6C17.3396 11.6 17.6799 11.2597 17.6799 10.84C17.6799 10.4202 17.3396 10.08 16.9199 10.08C16.5002 10.08 16.1599 10.4202 16.1599 10.84C16.1599 11.2597 16.5002 11.6 16.9199 11.6Z" fill="white"/>
<path d="M17.6799 16.1599H16.1599V17.6799H17.6799V16.1599Z" fill="white"/>
<path d="M16.1599 20.72H17.6799V19.96C17.6799 19.7584 17.5998 19.5651 17.4573 19.4226C17.3148 19.28 17.1215 19.2 16.9199 19.2C16.7183 19.2 16.525 19.28 16.3825 19.4226C16.24 19.5651 16.1599 19.7584 16.1599 19.96" fill="white"/>
<path d="M17.6799 20.72H16.1599V22.24H17.6799V20.72Z" fill="white"/>
<path d="M17.6799 22.24H16.1599V23.76H17.6799V22.24Z" fill="white"/>
<path d="M17.6799 23.76H16.1599V25.28H17.6799V23.76Z" fill="white"/>
<path d="M16.1599 28.3199H17.6799V26.7999H16.9199C16.7183 26.7999 16.525 26.88 16.3825 27.0225C16.24 27.1651 16.1599 27.3584 16.1599 27.5599" fill="white"/>
<path d="M17.6799 29.84V28.32H16.1599V29.08C16.1599 29.2815 16.24 29.4748 16.3825 29.6174C16.5251 29.7599 16.7184 29.84 16.9199 29.84" fill="white"/>
<path d="M17.6799 32.88H16.1599V34.4H17.6799V32.88Z" fill="white"/>
<path d="M16.1599 35.9199V37.4399H17.6799V36.6799C17.6799 36.4784 17.5998 36.285 17.4573 36.1425C17.3148 36 17.1215 35.9199 16.9199 35.9199" fill="white"/>
<path d="M17.6799 38.96V37.44H16.1599V38.2C16.1599 38.4015 16.24 38.5948 16.3825 38.7374C16.5251 38.8799 16.7184 38.96 16.9199 38.96" fill="white"/>
<path d="M17.6799 4H19.1999V3.24C19.1999 3.03844 19.1199 2.84513 18.9773 2.7026C18.8348 2.56007 18.6415 2.48 18.4399 2.48C18.2384 2.48 18.0451 2.56007 17.9025 2.7026C17.76 2.84513 17.6799 3.03844 17.6799 3.24" fill="white"/>
<path d="M19.2 5.52002V4.00002H17.68V4.76002C17.68 4.96158 17.76 5.15489 17.9026 5.29742C18.0451 5.43995 18.2384 5.52002 18.44 5.52002" fill="white"/>
<path d="M18.4399 14.64C18.8597 14.64 19.1999 14.2997 19.1999 13.88C19.1999 13.4603 18.8597 13.12 18.4399 13.12C18.0202 13.12 17.6799 13.4603 17.6799 13.88C17.6799 14.2997 18.0202 14.64 18.4399 14.64Z" fill="white"/>
<path d="M17.6799 16.1599V17.6799H18.4399C18.6415 17.6799 18.8348 17.5998 18.9773 17.4573C19.1199 17.3148 19.1999 17.1215 19.1999 16.9199C19.1999 16.7183 19.1199 16.525 18.9773 16.3825C18.8348 16.24 18.6415 16.1599 18.4399 16.1599" fill="white"/>
<path d="M19.1999 20.72H17.6799V22.24H19.1999V20.72Z" fill="white"/>
<path d="M17.6799 23.76V25.28H19.1999V24.52C19.1999 24.3184 19.1199 24.1251 18.9773 23.9826C18.8348 23.8401 18.6415 23.76 18.4399 23.76" fill="white"/>
<path d="M19.1999 25.2799H17.6799V26.7999H19.1999V25.2799Z" fill="white"/>
<path d="M19.1999 26.7999H17.6799V28.3199H19.1999V26.7999Z" fill="white"/>
<path d="M19.1999 28.3199H17.6799V29.8399H19.1999V28.3199Z" fill="white"/>
<path d="M19.2 29.84H17.68V30.6C17.68 30.8015 17.76 30.9948 17.9025 31.1374C18.0451 31.2799 18.2384 31.36 18.44 31.36C18.6415 31.36 18.8348 31.2799 18.9774 31.1374C19.1199 30.9948 19.2 30.8015 19.2 30.6" fill="white"/>
<path d="M17.6799 32.88V34.4H18.4399C18.6415 34.4 18.8348 34.3199 18.9773 34.1774C19.1199 34.0349 19.1999 33.8416 19.1999 33.64C19.1999 33.4384 19.1199 33.2451 18.9773 33.1026C18.8348 32.9601 18.6415 32.88 18.4399 32.88" fill="white"/>
<path d="M19.1999 37.4399H17.6799V38.9599H19.1999V37.4399Z" fill="white"/>
<path d="M19.2 4V5.52H19.96C20.1615 5.52 20.3548 5.43993 20.4974 5.2974C20.6399 5.15487 20.72 4.96156 20.72 4.76C20.72 4.55844 20.6399 4.36513 20.4974 4.2226C20.3548 4.08007 20.1615 4 19.96 4" fill="white"/>
<path d="M19.96 11.6C20.3797 11.6 20.72 11.2597 20.72 10.84C20.72 10.4202 20.3797 10.08 19.96 10.08C19.5402 10.08 19.2 10.4202 19.2 10.84C19.2 11.2597 19.5402 11.6 19.96 11.6Z" fill="white"/>
<path d="M20.72 19.2V17.68H19.96C19.7584 17.68 19.5651 17.76 19.4226 17.9026C19.28 18.0451 19.2 18.2384 19.2 18.44C19.2 18.6415 19.28 18.8348 19.4226 18.9774C19.5651 19.1199 19.7584 19.2 19.96 19.2" fill="white"/>
<path d="M19.2 20.72V22.24H19.96C20.1615 22.24 20.3548 22.1599 20.4974 22.0174C20.6399 21.8748 20.72 21.6815 20.72 21.48C20.72 21.2784 20.6399 21.0851 20.4974 20.9426C20.3548 20.8 20.1615 20.72 19.96 20.72" fill="white"/>
<path d="M19.2 25.2799V26.7999H19.96C20.1615 26.7999 20.3548 26.7198 20.4974 26.5773C20.6399 26.4348 20.72 26.2415 20.72 26.0399C20.72 25.8383 20.6399 25.645 20.4974 25.5025C20.3548 25.36 20.1615 25.2799 19.96 25.2799" fill="white"/>
<path d="M19.2 28.3199V29.8399H19.96C20.1615 29.8399 20.3548 29.7599 20.4974 29.6173C20.6399 29.4748 20.72 29.2815 20.72 29.0799C20.72 28.8784 20.6399 28.6851 20.4974 28.5425C20.3548 28.4 20.1615 28.3199 19.96 28.3199" fill="white"/>
<path d="M19.2 37.4399V38.9599H19.96C20.1615 38.9599 20.3548 38.8799 20.4974 38.7373C20.6399 38.5948 20.72 38.4015 20.72 38.1999C20.72 37.9984 20.6399 37.8051 20.4974 37.6625C20.3548 37.52 20.1615 37.4399 19.96 37.4399" fill="white"/>
<path d="M22.24 2.47998V0.95998H21.48C21.2784 0.95998 21.0851 1.04005 20.9426 1.18258C20.8001 1.32511 20.72 1.51842 20.72 1.71998C20.72 1.92155 20.8001 2.11485 20.9426 2.25738C21.0851 2.39991 21.2784 2.47998 21.48 2.47998" fill="white"/>
<path d="M20.72 7.03992H22.24V6.27992C22.24 6.07835 22.1599 5.88504 22.0174 5.74251C21.8748 5.59999 21.6815 5.51992 21.48 5.51992C21.2784 5.51992 21.0851 5.59999 20.9426 5.74251C20.8 5.88504 20.72 6.07835 20.72 6.27992" fill="white"/>
<path d="M22.24 7.03992H20.72V8.55992H22.24V7.03992Z" fill="white"/>
<path d="M22.24 10.08V8.55996H20.72V9.31996C20.72 9.52152 20.8001 9.71483 20.9426 9.85736C21.0851 9.99988 21.2784 10.08 21.48 10.08" fill="white"/>
<path d="M22.24 16.1599V14.6399H21.48C21.2784 14.6399 21.0851 14.72 20.9426 14.8625C20.8001 15.005 20.72 15.1983 20.72 15.3999C20.72 15.6015 20.8001 15.7948 20.9426 15.9373C21.0851 16.0798 21.2784 16.1599 21.48 16.1599" fill="white"/>
<path d="M22.24 17.6799H20.72V19.1999H22.24V17.6799Z" fill="white"/>
<path d="M22.24 19.2H20.72V19.96C20.72 20.1615 20.8001 20.3548 20.9426 20.4974C21.0851 20.6399 21.2784 20.72 21.48 20.72C21.6816 20.72 21.8749 20.6399 22.0174 20.4974C22.1599 20.3548 22.24 20.1615 22.24 19.96" fill="white"/>
<path d="M22.24 25.2799V23.7599H21.48C21.2784 23.7599 21.0851 23.84 20.9426 23.9825C20.8001 24.125 20.72 24.3183 20.72 24.5199C20.72 24.7215 20.8001 24.9148 20.9426 25.0573C21.0851 25.1998 21.2784 25.2799 21.48 25.2799" fill="white"/>
<path d="M21.48 28.3199C21.8997 28.3199 22.24 27.9797 22.24 27.5599C22.24 27.1402 21.8997 26.7999 21.48 26.7999C21.0602 26.7999 20.72 27.1402 20.72 27.5599C20.72 27.9797 21.0602 28.3199 21.48 28.3199Z" fill="white"/>
<path d="M22.24 31.36V29.84H21.48C21.2784 29.84 21.0851 29.9201 20.9426 30.0626C20.8001 30.2051 20.72 30.3984 20.72 30.6C20.72 30.8015 20.8001 30.9949 20.9426 31.1374C21.0851 31.2799 21.2784 31.36 21.48 31.36" fill="white"/>
<path d="M22.24 37.4399V35.9199H21.48C21.2784 35.9199 21.0851 36 20.9426 36.1425C20.8001 36.2851 20.72 36.4784 20.72 36.6799C20.72 36.8815 20.8001 37.0748 20.9426 37.2173C21.0851 37.3599 21.2784 37.4399 21.48 37.4399" fill="white"/>
<path d="M23.76 0.959961H22.24V2.47996H23.76V0.959961Z" fill="white"/>
<path d="M22.24 8.55994V10.0799H23.76V9.31994C23.76 9.11837 23.6799 8.92506 23.5374 8.78254C23.3949 8.64001 23.2016 8.55994 23 8.55994" fill="white"/>
<path d="M23.76 10.08H22.24V10.84C22.24 11.0415 22.3201 11.2348 22.4626 11.3774C22.6051 11.5199 22.7984 11.6 23 11.6C23.2016 11.6 23.3949 11.5199 23.5374 11.3774C23.6799 11.2348 23.76 11.0415 23.76 10.84" fill="white"/>
<path d="M23.76 14.64H22.24V16.16H23.76V14.64Z" fill="white"/>
<path d="M23.76 16.1599H22.24V17.6799H23.76V16.1599Z" fill="white"/>
<path d="M23.76 17.6799H22.24V19.1999H23.76V17.6799Z" fill="white"/>
<path d="M22.24 22.24H23.76V21.48C23.76 21.2784 23.6799 21.0851 23.5374 20.9426C23.3949 20.8001 23.2016 20.72 23 20.72C22.7984 20.72 22.6051 20.8001 22.4626 20.9426C22.3201 21.0851 22.24 21.2784 22.24 21.48" fill="white"/>
<path d="M23.76 22.24H22.24V23.76H23.76V22.24Z" fill="white"/>
<path d="M23.76 23.76H22.24V25.28H23.76V23.76Z" fill="white"/>
<path d="M23.76 25.2799H22.24V26.0399C22.24 26.2415 22.3201 26.4348 22.4626 26.5773C22.6051 26.7198 22.7984 26.7999 23 26.7999C23.2016 26.7999 23.3949 26.7198 23.5374 26.5773C23.6799 26.4348 23.76 26.2415 23.76 26.0399" fill="white"/>
<path d="M22.24 29.84H23.76V29.08C23.76 28.8784 23.6799 28.6851 23.5374 28.5426C23.3949 28.4 23.2016 28.32 23 28.32C22.7984 28.32 22.6051 28.4 22.4626 28.5426C22.3201 28.6851 22.24 28.8784 22.24 29.08" fill="white"/>
<path d="M23.76 29.84H22.24V31.36H23.76V29.84Z" fill="white"/>
<path d="M23.76 31.36H22.24V32.88H23.76V31.36Z" fill="white"/>
<path d="M23.76 34.3999V32.8799H22.24V33.6399C22.24 33.8415 22.3201 34.0348 22.4626 34.1773C22.6051 34.3198 22.7984 34.3999 23 34.3999" fill="white"/>
<path d="M22.24 35.9199V37.4399H23.76V36.6799C23.76 36.4784 23.6799 36.285 23.5374 36.1425C23.3949 36 23.2016 35.9199 23 35.9199" fill="white"/>
<path d="M23.76 38.96V37.44H22.24V38.2C22.24 38.4015 22.3201 38.5948 22.4626 38.7374C22.6051 38.8799 22.7984 38.96 23 38.96" fill="white"/>
<path d="M25.28 0.959961H23.76V2.47996H25.28V0.959961Z" fill="white"/>
<path d="M23.76 5.52002H25.28V4.00002H24.52C24.3184 4.00002 24.1251 4.08009 23.9826 4.22262C23.8401 4.36514 23.76 4.55845 23.76 4.76002" fill="white"/>
<path d="M25.28 5.52002H23.76V7.04002H25.28V5.52002Z" fill="white"/>
<path d="M25.2799 7.03992H23.7599V7.79992C23.7599 8.00148 23.84 8.19479 23.9825 8.33732C24.125 8.47985 24.3183 8.55992 24.5199 8.55992C24.7215 8.55992 24.9148 8.47985 25.0573 8.33732C25.1998 8.19479 25.2799 8.00148 25.2799 7.79992" fill="white"/>
<path d="M25.2799 13.12V11.6H24.5199C24.3183 11.6 24.125 11.6801 23.9825 11.8226C23.84 11.9651 23.7599 12.1584 23.7599 12.36C23.7599 12.5616 23.84 12.7549 23.9825 12.8974C24.125 13.0399 24.3183 13.12 24.5199 13.12" fill="white"/>
<path d="M25.28 14.64H23.76V16.16H25.28V14.64Z" fill="white"/>
<path d="M23.76 17.6799V19.1999H25.28V18.4399C25.28 18.2384 25.1999 18.0451 25.0574 17.9025C24.9149 17.76 24.7216 17.6799 24.52 17.6799" fill="white"/>
<path d="M25.2799 20.72V19.2H23.7599V19.96C23.7599 20.1615 23.84 20.3548 23.9825 20.4974C24.125 20.6399 24.3183 20.72 24.5199 20.72" fill="white"/>
<path d="M23.76 23.76V25.28H24.52C24.7216 25.28 24.9149 25.1999 25.0574 25.0574C25.1999 24.9149 25.28 24.7216 25.28 24.52C25.28 24.3184 25.1999 24.1251 25.0574 23.9826C24.9149 23.8401 24.7216 23.76 24.52 23.76" fill="white"/>
<path d="M25.2799 28.3199V26.7999H24.5199C24.3183 26.7999 24.125 26.88 23.9825 27.0225C23.84 27.1651 23.7599 27.3584 23.7599 27.5599C23.7599 27.7615 23.84 27.9548 23.9825 28.0973C24.125 28.2399 24.3183 28.3199 24.5199 28.3199" fill="white"/>
<path d="M25.28 29.84H23.76V31.36H25.28V29.84Z" fill="white"/>
<path d="M23.76 32.88V34.4H25.28V33.64C25.28 33.4384 25.1999 33.2451 25.0574 33.1026C24.9149 32.9601 24.7216 32.88 24.52 32.88" fill="white"/>
<path d="M25.2799 35.9199V34.3999H23.7599V35.1599C23.7599 35.3615 23.84 35.5548 23.9825 35.6973C24.125 35.8399 24.3183 35.9199 24.5199 35.9199" fill="white"/>
<path d="M23.76 37.4399V38.9599H24.52C24.7216 38.9599 24.9149 38.8799 25.0574 38.7373C25.1999 38.5948 25.28 38.4015 25.28 38.1999C25.28 37.9984 25.1999 37.8051 25.0574 37.6625C24.9149 37.52 24.7216 37.4399 24.52 37.4399" fill="white"/>
<path d="M25.2799 0.959961V2.47996H26.0399C26.2415 2.47996 26.4348 2.39989 26.5773 2.25736C26.7198 2.11483 26.7999 1.92153 26.7999 1.71996C26.7999 1.5184 26.7198 1.32509 26.5773 1.18256C26.4348 1.04003 26.2415 0.959961 26.0399 0.959961" fill="white"/>
<path d="M25.2799 4V5.52H26.7999V4.76C26.7999 4.55844 26.7198 4.36513 26.5773 4.2226C26.4348 4.08007 26.2415 4 26.0399 4" fill="white"/>
<path d="M26.7999 5.52002H25.2799V7.04002H26.0399C26.2415 7.04002 26.4348 6.95995 26.5773 6.81742C26.7199 6.67489 26.7999 6.48158 26.7999 6.28002" fill="white"/>
<path d="M25.2799 11.6H26.7999V10.84C26.7999 10.6384 26.7198 10.4451 26.5773 10.3026C26.4348 10.16 26.2415 10.08 26.0399 10.08C25.8383 10.08 25.645 10.16 25.5025 10.3026C25.36 10.4451 25.2799 10.6384 25.2799 10.84" fill="white"/>
<path d="M26.7999 11.6H25.2799V13.12H26.0399C26.2415 13.12 26.4348 13.0399 26.5773 12.8974C26.7199 12.7549 26.7999 12.5615 26.7999 12.36" fill="white"/>
<path d="M25.2799 14.64V16.16H26.7999V15.4C26.7999 15.1985 26.7198 15.0051 26.5773 14.8626C26.4348 14.7201 26.2415 14.64 26.0399 14.64" fill="white"/>
<path d="M26.7999 16.1599H25.2799V16.9199C25.2799 17.1215 25.36 17.3148 25.5025 17.4573C25.6451 17.5998 25.8384 17.6799 26.0399 17.6799C26.2415 17.6799 26.4348 17.5998 26.5773 17.4573C26.7199 17.3148 26.7999 17.1215 26.7999 16.9199" fill="white"/>
<path d="M25.2799 19.2V20.72H26.7999V19.96C26.7999 19.7584 26.7198 19.5651 26.5773 19.4226C26.4348 19.28 26.2415 19.2 26.0399 19.2" fill="white"/>
<path d="M26.7999 20.72H25.2799V21.48C25.2799 21.6815 25.36 21.8748 25.5025 22.0174C25.6451 22.1599 25.8384 22.24 26.0399 22.24C26.2415 22.24 26.4348 22.1599 26.5773 22.0174C26.7199 21.8748 26.7999 21.6815 26.7999 21.48" fill="white"/>
<path d="M25.2799 26.7999H26.7999V25.2799H26.0399C25.8383 25.2799 25.645 25.36 25.5025 25.5025C25.36 25.6451 25.2799 25.8384 25.2799 26.0399" fill="white"/>
<path d="M26.7999 26.7999H25.2799V28.3199H26.7999V26.7999Z" fill="white"/>
<path d="M26.7999 28.3199H25.2799V29.8399H26.7999V28.3199Z" fill="white"/>
<path d="M26.7999 29.84H25.2799V31.36H26.7999V29.84Z" fill="white"/>
<path d="M26.7999 32.88V31.36H25.2799V32.12C25.2799 32.3216 25.36 32.5149 25.5025 32.6574C25.6451 32.7999 25.8384 32.88 26.0399 32.88" fill="white"/>
<path d="M25.2799 34.3999V35.9199H26.0399C26.2415 35.9199 26.4348 35.8398 26.5773 35.6973C26.7198 35.5548 26.7999 35.3615 26.7999 35.1599C26.7999 34.9583 26.7198 34.765 26.5773 34.6225C26.4348 34.48 26.2415 34.3999 26.0399 34.3999" fill="white"/>
<path d="M28.3199 14.64V13.12H27.5599C27.3584 13.12 27.1651 13.2001 27.0225 13.3426C26.88 13.4851 26.7999 13.6785 26.7999 13.88C26.7999 14.0816 26.88 14.2749 27.0225 14.4174C27.1651 14.5599 27.3584 14.64 27.5599 14.64" fill="white"/>
<path d="M28.3199 23.76V22.24H27.5599C27.3584 22.24 27.1651 22.3201 27.0225 22.4626C26.88 22.6051 26.7999 22.7984 26.7999 23C26.7999 23.2016 26.88 23.3949 27.0225 23.5374C27.1651 23.6799 27.3584 23.76 27.5599 23.76" fill="white"/>
<path d="M28.3199 25.2799H26.7999V26.7999H28.3199V25.2799Z" fill="white"/>
<path d="M28.3199 31.36H26.7999V32.88H28.3199V31.36Z" fill="white"/>
<path d="M28.3199 13.12V14.64H29.0799C29.2815 14.64 29.4748 14.5599 29.6173 14.4174C29.7599 14.2749 29.8399 14.0816 29.8399 13.88C29.8399 13.6784 29.7599 13.4851 29.6173 13.3426C29.4748 13.2001 29.2815 13.12 29.0799 13.12" fill="white"/>
<path d="M28.3199 17.6799H29.8399V16.9199C29.8399 16.7184 29.7599 16.5251 29.6173 16.3825C29.4748 16.24 29.2815 16.1599 29.0799 16.1599C28.8784 16.1599 28.6851 16.24 28.5425 16.3825C28.4 16.5251 28.3199 16.7184 28.3199 16.9199" fill="white"/>
<path d="M29.84 17.6799H28.32V18.4399C28.32 18.6415 28.4 18.8348 28.5426 18.9773C28.6851 19.1199 28.8784 19.1999 29.08 19.1999C29.2815 19.1999 29.4748 19.1199 29.6174 18.9773C29.7599 18.8348 29.84 18.6415 29.84 18.4399" fill="white"/>
<path d="M28.3199 22.24H29.8399V20.72H29.0799C28.8784 20.72 28.6851 20.8001 28.5425 20.9426C28.4 21.0851 28.3199 21.2784 28.3199 21.48" fill="white"/>
<path d="M29.8399 22.24H28.3199V23.76H29.8399V22.24Z" fill="white"/>
<path d="M29.8399 25.2799H28.3199V26.7999H29.8399V25.2799Z" fill="white"/>
<path d="M29.0799 29.8399C29.4997 29.8399 29.8399 29.4997 29.8399 29.0799C29.8399 28.6602 29.4997 28.3199 29.0799 28.3199C28.6602 28.3199 28.3199 28.6602 28.3199 29.0799C28.3199 29.4997 28.6602 29.8399 29.0799 29.8399Z" fill="white"/>
<path d="M29.8399 31.36H28.3199V32.88H29.8399V31.36Z" fill="white"/>
<path d="M29.0799 38.9599C29.4997 38.9599 29.8399 38.6197 29.8399 38.1999C29.8399 37.7802 29.4997 37.4399 29.0799 37.4399C28.6602 37.4399 28.3199 37.7802 28.3199 38.1999C28.3199 38.6197 28.6602 38.9599 29.0799 38.9599Z" fill="white"/>
<path d="M30.6 16.16C31.0197 16.16 31.36 15.8198 31.36 15.4C31.36 14.9803 31.0197 14.64 30.6 14.64C30.1802 14.64 29.84 14.9803 29.84 15.4C29.84 15.8198 30.1802 16.16 30.6 16.16Z" fill="white"/>
<path d="M29.84 20.72V22.24H31.36V21.48C31.36 21.2784 31.2799 21.0851 31.1374 20.9426C30.9948 20.8 30.8015 20.72 30.6 20.72" fill="white"/>
<path d="M31.36 22.24H29.84V23.76H31.36V22.24Z" fill="white"/>
<path d="M31.36 23.76H29.84V25.28H31.36V23.76Z" fill="white"/>
<path d="M31.36 25.2799H29.84V26.7999H31.36V25.2799Z" fill="white"/>
<path d="M31.36 31.36H29.84V32.88H31.36V31.36Z" fill="white"/>
<path d="M30.6 37.4399C31.0197 37.4399 31.36 37.0997 31.36 36.6799C31.36 36.2602 31.0197 35.9199 30.6 35.9199C30.1802 35.9199 29.84 36.2602 29.84 36.6799C29.84 37.0997 30.1802 37.4399 30.6 37.4399Z" fill="white"/>
<path d="M31.36 17.6799H32.88V16.9199C32.88 16.7184 32.7999 16.5251 32.6574 16.3825C32.5149 16.24 32.3215 16.1599 32.12 16.1599C31.9184 16.1599 31.7251 16.24 31.5826 16.3825C31.4401 16.5251 31.36 16.7184 31.36 16.9199" fill="white"/>
<path d="M32.88 17.6799H31.36V19.1999H32.88V17.6799Z" fill="white"/>
<path d="M32.88 20.72V19.2H31.36V19.96C31.36 20.1615 31.4401 20.3548 31.5826 20.4974C31.7251 20.6399 31.9184 20.72 32.12 20.72" fill="white"/>
<path d="M32.88 22.24H31.36V23.76H32.88V22.24Z" fill="white"/>
<path d="M32.88 23.76H31.36V25.28H32.88V23.76Z" fill="white"/>
<path d="M32.88 25.2799H31.36V26.7999H32.88V25.2799Z" fill="white"/>
<path d="M32.88 26.7999H31.36V28.3199H32.88V26.7999Z" fill="white"/>
<path d="M32.88 28.3199H31.36V29.8399H32.88V28.3199Z" fill="white"/>
<path d="M32.88 29.84H31.36V31.36H32.88V29.84Z" fill="white"/>
<path d="M32.88 31.36H31.36V32.88H32.12C32.3216 32.88 32.5149 32.7999 32.6574 32.6574C32.7999 32.5149 32.88 32.3215 32.88 32.12" fill="white"/>
<path d="M32.12 35.9199C32.5397 35.9199 32.88 35.5796 32.88 35.1599C32.88 34.7402 32.5397 34.3999 32.12 34.3999C31.7002 34.3999 31.36 34.7402 31.36 35.1599C31.36 35.5796 31.7002 35.9199 32.12 35.9199Z" fill="white"/>
<path d="M32.88 38.96V37.44H32.12C31.9184 37.44 31.7251 37.52 31.5826 37.6626C31.4401 37.8051 31.36 37.9984 31.36 38.2C31.36 38.4015 31.4401 38.5948 31.5826 38.7374C31.7251 38.8799 31.9184 38.96 32.12 38.96" fill="white"/>
<path d="M32.88 19.2V20.72H33.64C33.8416 20.72 34.0349 20.6399 34.1774 20.4974C34.3199 20.3548 34.4 20.1615 34.4 19.96C34.4 19.7584 34.3199 19.5651 34.1774 19.4226C34.0349 19.28 33.8416 19.2 33.64 19.2" fill="white"/>
<path d="M34.4 22.24H32.88V23.76H34.4V22.24Z" fill="white"/>
<path d="M34.3999 23.76H32.8799V25.28H33.6399C33.8415 25.28 34.0348 25.1999 34.1773 25.0574C34.3198 24.9149 34.3999 24.7216 34.3999 24.52" fill="white"/>
<path d="M34.4 26.7999H32.88V28.3199H34.4V26.7999Z" fill="white"/>
<path d="M34.3999 28.3199H32.8799V29.8399H33.6399C33.8415 29.8399 34.0348 29.7599 34.1773 29.6173C34.3198 29.4748 34.3999 29.2815 34.3999 29.0799" fill="white"/>
<path d="M32.88 37.4399H34.4V36.6799C34.4 36.4784 34.3199 36.2851 34.1774 36.1425C34.0349 36 33.8416 35.9199 33.64 35.9199C33.4384 35.9199 33.2451 36 33.1026 36.1425C32.9601 36.2851 32.88 36.4784 32.88 36.6799" fill="white"/>
<path d="M34.4 37.4399H32.88V38.9599H34.4V37.4399Z" fill="white"/>
<path d="M34.3999 16.1599H35.9199V14.6399H35.1599C34.9583 14.6399 34.765 14.72 34.6225 14.8625C34.48 15.005 34.3999 15.1983 34.3999 15.3999" fill="white"/>
<path d="M35.9199 17.6799V16.1599H34.3999V16.9199C34.3999 17.1215 34.48 17.3148 34.6225 17.4573C34.765 17.5999 34.9584 17.6799 35.1599 17.6799" fill="white"/>
<path d="M34.3999 22.24H35.9199V21.48C35.9199 21.2784 35.8398 21.0851 35.6973 20.9426C35.5548 20.8001 35.3615 20.72 35.1599 20.72C34.9583 20.72 34.765 20.8001 34.6225 20.9426C34.48 21.0851 34.3999 21.2784 34.3999 21.48" fill="white"/>
<path d="M35.9199 22.24H34.3999V23.76H35.9199V22.24Z" fill="white"/>
<path d="M35.9199 26.7999H34.3999V28.3199H35.9199V26.7999Z" fill="white"/>
<path d="M34.3999 34.3999H35.9199V33.6399C35.9199 33.4383 35.8398 33.245 35.6973 33.1025C35.5548 32.96 35.3615 32.8799 35.1599 32.8799C34.9583 32.8799 34.765 32.96 34.6225 33.1025C34.48 33.245 34.3999 33.4383 34.3999 33.6399" fill="white"/>
<path d="M35.9199 34.3999H34.3999V35.1599C34.3999 35.3615 34.48 35.5548 34.6225 35.6973C34.765 35.8398 34.9584 35.9199 35.1599 35.9199C35.3615 35.9199 35.5548 35.8398 35.6973 35.6973C35.8399 35.5548 35.9199 35.3615 35.9199 35.1599" fill="white"/>
<path d="M35.9199 37.4399H34.3999V38.9599H35.9199V37.4399Z" fill="white"/>
<path d="M35.9199 14.64H37.4399V13.88C37.4399 13.6785 37.3599 13.4851 37.2173 13.3426C37.0748 13.2001 36.8815 13.12 36.6799 13.12C36.4784 13.12 36.285 13.2001 36.1425 13.3426C36 13.4851 35.9199 13.6785 35.9199 13.88" fill="white"/>
<path d="M37.4399 14.64H35.9199V16.16H37.4399V14.64Z" fill="white"/>
<path d="M37.4399 16.1599H35.9199V17.6799H37.4399V16.1599Z" fill="white"/>
<path d="M36.6799 20.72C37.0997 20.72 37.4399 20.3797 37.4399 19.96C37.4399 19.5402 37.0997 19.2 36.6799 19.2C36.2602 19.2 35.9199 19.5402 35.9199 19.96C35.9199 20.3797 36.2602 20.72 36.6799 20.72Z" fill="white"/>
<path d="M35.9199 22.24V23.76H36.6799C36.8815 23.76 37.0748 23.6799 37.2173 23.5374C37.3599 23.3949 37.4399 23.2016 37.4399 23C37.4399 22.7984 37.3599 22.6051 37.2173 22.4626C37.0748 22.3201 36.8815 22.24 36.6799 22.24" fill="white"/>
<path d="M35.9199 26.7999H37.4399V25.2799H36.6799C36.4784 25.2799 36.285 25.36 36.1425 25.5025C36 25.6451 35.9199 25.8384 35.9199 26.0399" fill="white"/>
<path d="M37.4399 26.7999H35.9199V28.3199H37.4399V26.7999Z" fill="white"/>
<path d="M37.4399 28.3199H35.9199V29.8399H37.4399V28.3199Z" fill="white"/>
<path d="M37.4399 29.84H35.9199V31.36H37.4399V29.84Z" fill="white"/>
<path d="M37.4399 31.36H35.9199V32.12C35.9199 32.3215 36 32.5149 36.1425 32.6574C36.2851 32.7999 36.4784 32.88 36.6799 32.88C36.8815 32.88 37.0748 32.7999 37.2173 32.6574C37.3599 32.5149 37.4399 32.3215 37.4399 32.12" fill="white"/>
<path d="M37.4399 37.4399H35.9199V38.9599H37.4399V37.4399Z" fill="white"/>
<path d="M37.4399 14.64V16.16H38.9599V15.4C38.9599 15.1985 38.8799 15.0051 38.7373 14.8626C38.5948 14.7201 38.4015 14.64 38.1999 14.64" fill="white"/>
<path d="M38.9599 16.1599H37.4399V17.6799H38.9599V16.1599Z" fill="white"/>
<path d="M38.96 17.6799H37.44V18.4399C37.44 18.6415 37.52 18.8348 37.6626 18.9773C37.8051 19.1199 37.9984 19.1999 38.2 19.1999C38.4015 19.1999 38.5948 19.1199 38.7374 18.9773C38.8799 18.8348 38.96 18.6415 38.96 18.4399" fill="white"/>
<path d="M37.4399 25.2799V26.7999H38.9599V26.0399C38.9599 25.8383 38.8799 25.645 38.7373 25.5025C38.5948 25.36 38.4015 25.2799 38.1999 25.2799" fill="white"/>
<path d="M38.9599 26.7999H37.4399V28.3199H38.9599V26.7999Z" fill="white"/>
<path d="M38.96 28.3199H37.44V29.8399H38.2C38.4015 29.8399 38.5948 29.7599 38.7374 29.6173C38.8799 29.4748 38.96 29.2815 38.96 29.0799" fill="white"/>
<path d="M38.1999 34.4C38.6197 34.4 38.9599 34.0597 38.9599 33.64C38.9599 33.2203 38.6197 32.88 38.1999 32.88C37.7802 32.88 37.4399 33.2203 37.4399 33.64C37.4399 34.0597 37.7802 34.4 38.1999 34.4Z" fill="white"/>
<path d="M37.4399 37.4399V38.9599H38.1999C38.4015 38.9599 38.5948 38.8799 38.7373 38.7373C38.8799 38.5948 38.9599 38.4015 38.9599 38.1999C38.9599 37.9984 38.8799 37.8051 38.7373 37.6625C38.5948 37.52 38.4015 37.4399 38.1999 37.4399" fill="white"/>
<path fill-rule="evenodd" clip-rule="evenodd" d="M0.959961 4.75996V7.79996C0.959961 8.80778 1.36032 9.77433 2.07296 10.487C2.78559 11.1996 3.75214 11.6 4.75996 11.6H7.79996C8.80778 11.6 9.77433 11.1996 10.487 10.487C11.1996 9.77433 11.6 8.80778 11.6 7.79996V4.75996C11.6 3.75214 11.1996 2.78559 10.487 2.07296C9.77433 1.36032 8.80778 0.959961 7.79996 0.959961H4.75996C3.75214 0.959961 2.78559 1.36032 2.07296 2.07296C1.36032 2.78559 0.959961 3.75214 0.959961 4.75996ZM4.75996 2.47996H7.79996C8.40465 2.47996 8.98458 2.72017 9.41216 3.14776C9.83975 3.57534 10.08 4.15527 10.08 4.75996V7.79996C10.08 8.40465 9.83975 8.98458 9.41216 9.41216C8.98458 9.83975 8.40465 10.08 7.79996 10.08H4.75996C4.15527 10.08 3.57534 9.83975 3.14776 9.41216C2.72017 8.98458 2.47996 8.40465 2.47996 7.79996V4.75996C2.47996 4.15527 2.72017 3.57534 3.14776 3.14776C3.57534 2.72017 4.15527 2.47996 4.75996 2.47996Z" fill="white"/>
<path d="M8.56 4H4V8.56H8.56V4Z" fill="white"/>
<path fill-rule="evenodd" clip-rule="evenodd" d="M35.16 0.959961L32.12 0.959961C31.1121 0.959961 30.1456 1.36032 29.433 2.07295C28.7203 2.78559 28.32 3.75214 28.32 4.75996V7.79996C28.32 8.80778 28.7203 9.77433 29.433 10.487C30.1456 11.1996 31.1121 11.6 32.12 11.6H35.16C36.1678 11.6 37.1343 11.1996 37.847 10.487C38.5596 9.77433 38.96 8.80778 38.96 7.79996V4.75996C38.96 3.75214 38.5596 2.78559 37.847 2.07295C37.1343 1.36032 36.1678 0.959961 35.16 0.959961ZM37.44 4.75996V7.79996C37.44 8.40465 37.1997 8.98458 36.7722 9.41217C36.3446 9.83975 35.7647 10.08 35.16 10.08H32.12C31.5153 10.08 30.9353 9.83975 30.5078 9.41217C30.0802 8.98458 29.84 8.40465 29.84 7.79996V4.75996C29.84 4.15527 30.0802 3.57534 30.5078 3.14776C30.9353 2.72017 31.5153 2.47996 32.12 2.47996L35.16 2.47996C35.7647 2.47996 36.3446 2.72017 36.7722 3.14776C37.1997 3.57534 37.44 4.15527 37.44 4.75996Z" fill="white"/>
<path d="M35.9199 8.56V4H31.3599V8.56H35.9199Z" fill="white"/>
<path fill-rule="evenodd" clip-rule="evenodd" d="M4.75996 38.96H7.79996C8.80778 38.96 9.77433 38.5596 10.487 37.847C11.1996 37.1343 11.6 36.1678 11.6 35.16V32.12C11.6 31.1121 11.1996 30.1456 10.487 29.433C9.77433 28.7203 8.80778 28.32 7.79996 28.32H4.75996C3.75214 28.32 2.78559 28.7203 2.07295 29.433C1.36032 30.1456 0.959961 31.1121 0.959961 32.12L0.959961 35.16C0.959961 36.1678 1.36032 37.1343 2.07295 37.847C2.78559 38.5596 3.75214 38.96 4.75996 38.96ZM2.47996 35.16L2.47996 32.12C2.47996 31.5153 2.72017 30.9353 3.14776 30.5078C3.57534 30.0802 4.15527 29.84 4.75996 29.84H7.79996C8.40465 29.84 8.98458 30.0802 9.41217 30.5078C9.83975 30.9353 10.08 31.5153 10.08 32.12V35.16C10.08 35.7647 9.83975 36.3446 9.41217 36.7722C8.98458 37.1997 8.40465 37.44 7.79996 37.44H4.75996C4.15527 37.44 3.57534 37.1997 3.14776 36.7722C2.72017 36.3446 2.47996 35.7647 2.47996 35.16Z" fill="white"/>
<path d="M4 31.3599V35.9199H8.56V31.3599H4Z" fill="white"/>
</mask>
<g mask="url(#mask0_622_9712)">
<path d="M40 0H0V40H40V0Z" fill="black"/>
</g>
</g>
<defs>
<clipPath id="clip0_622_9712">
<rect width="40" height="40" fill="white"/>
</clipPath>
</defs>
</svg>
