<svg width="220" height="46" viewBox="0 0 220 46" fill="none" xmlns="http://www.w3.org/2000/svg">
<path d="M82.3143 13.5127H71.2257V42.5626H64.8843V13.5127H53.8135V7.63184H82.3143V13.5127Z" fill="black"/>
<path d="M104.19 31.2815H83.9794C84.4754 35.6213 87.4158 38.0126 91.8088 38.0126C94.7492 38.0126 97.2468 36.9143 99.337 34.3636L103.535 37.552C100.843 41.201 96.6977 43.1494 91.7025 43.1494C83.4126 43.1494 77.9746 37.7646 77.9746 29.9707C77.9746 22.1768 83.6606 16.3845 91.6493 16.3845C99.089 16.3845 104.332 21.2734 104.332 29.0142C104.332 29.8113 104.279 30.5198 104.19 31.2638M84.2806 26.8H98.3096C97.6542 23.2042 95.2097 21.4505 91.6139 21.4505C88.0181 21.4505 85.2194 23.3459 84.2806 26.8Z" fill="black"/>
<path d="M105.235 39.4285L108.335 34.9293C110.975 36.984 114.021 38.0291 116.767 38.0291C119.512 38.0291 121.16 36.8778 121.16 35.2836C121.16 34.0791 120.256 33.1934 117.617 32.5911L113.171 31.546C108.034 30.3415 105.926 28.1096 105.926 24.567C105.926 19.7312 109.823 16.4365 116.165 16.4365C120.363 16.4365 124.207 17.8359 126.74 20.174L123.498 24.4253C121.107 22.5299 118.503 21.5734 115.917 21.5734C113.331 21.5734 111.825 22.6185 111.825 24.1773C111.825 25.3286 112.622 26.0195 115.368 26.6749L119.814 27.7199C125.004 28.9245 127.094 31.2626 127.094 34.9116C127.094 39.9068 123.25 43.2014 116.554 43.2014C112.161 43.2014 107.91 41.7489 105.218 39.4639" fill="black"/>
<path d="M147.659 41.9274C145.905 42.7245 143.922 43.0787 141.814 43.0787C135.72 43.0787 132.585 39.9789 132.585 33.1415V22.2655H127.342V17.0224H132.585V10.929H138.572V17.0224H146.703V22.2655H138.572V32.4507C138.572 36.0465 139.971 37.5876 142.912 37.5876C144.01 37.5876 145.409 37.3396 146.809 36.8968L147.659 41.9451V41.9274Z" fill="black"/>
<path d="M181.368 22.2463V38.0644C177.276 41.3591 171.979 43.1481 166.541 43.1481C155.701 43.1481 148.066 35.7617 148.066 25.2222C148.066 14.6827 156.002 6.99512 166.187 6.99512C171.873 6.99512 177.063 9.38642 180.464 13.7793L175.168 17.2689C173.078 14.417 169.783 12.9291 166.134 12.9291C159.545 12.9291 154.55 17.6763 154.55 25.1513C154.55 32.6264 159.385 37.1787 166.736 37.1787C169.925 37.1787 172.918 36.3816 175.416 34.8406V27.7021H167.232V22.2109H181.368V22.2463Z" fill="black"/>
<path d="M184.024 25.0974C184.024 14.558 191.96 7.02979 202.039 7.02979C212.118 7.02979 220 14.5757 220 25.0974C220 35.6192 212.065 43.1651 202.039 43.1651C192.013 43.1651 184.024 35.6192 184.024 25.0974ZM213.535 25.0974C213.535 17.7641 208.54 12.9638 202.057 12.9638C195.574 12.9638 190.525 17.7641 190.525 25.0974C190.525 32.4308 195.52 37.2311 202.057 37.2311C208.593 37.2311 213.535 32.4308 213.535 25.0974Z" fill="black"/>
<path d="M36.8438 10.752V45.1337H12.3108L36.8438 10.752ZM7.40419 8.28986C3.3124 8.28986 0 11.6023 0 15.6941V32.752L34.2931 8.28986H7.40419ZM37.2335 0.283414C36.9855 0.283414 36.6667 0.371981 36.4896 0.549115C34.6651 2.33817 32.8583 4.14493 30.8567 6.16426C33.8326 6.16426 36.4896 6.19968 39.1997 6.2174L39.2529 14.5427C41.2722 12.5234 43.0789 10.7343 44.868 8.89212C45.0274 8.71498 45.116 8.39614 45.116 8.14816C45.2223 5.49115 45.3108 2.81643 45.3994 0C42.5653 0.0885669 39.8905 0.177134 37.2158 0.283414" fill="#8B8B8B"/>
</svg>
