<svg width="407" height="388" viewBox="0 0 407 388" fill="none" xmlns="http://www.w3.org/2000/svg">
<path d="M330.251 92.0126V388H110.335L330.251 92.0126ZM66.4338 70.7673C29.724 70.7673 0 99.3136 0 134.569V281.51L307.445 70.7673H66.4338Z" fill="#36B44A" fill-opacity="0.04"/>
<path d="M333.817 2.48383C331.63 2.54919 328.692 3.26819 327.188 4.77156C310.857 20.0667 294.799 35.5579 276.76 52.814C303.341 52.9447 327.188 53.0755 351.446 53.2062L351.924 124.453C369.964 107.197 386.159 91.7709 402.217 76.1489C403.72 74.7109 404.403 71.9003 404.472 69.7433C405.428 46.9313 406.111 24.1846 407 0C381.58 0.84973 357.733 1.56873 333.885 2.48383H333.817Z" fill="#36B44A" fill-opacity="0.04"/>
</svg>
